<svg width="30" height="30" viewBox="0 0 30 30" fill="none" xmlns="http://www.w3.org/2000/svg">
<path fill-rule="evenodd" clip-rule="evenodd" d="M5.37452 24.4656C5.29191 24.227 5.24967 23.9758 5.24997 23.7225C5.24888 23.1633 5.45413 22.6234 5.8264 22.2061C6.19867 21.7889 6.71179 21.5236 7.26747 21.4612V21.462C13.1145 20.8147 16.923 20.8732 22.7415 21.4755C23.1752 21.5207 23.5863 21.6915 23.9245 21.9668C24.2627 22.2421 24.5132 22.6101 24.6455 23.0256C24.7778 23.4411 24.786 23.8862 24.6692 24.3064C24.6532 24.364 24.6349 24.4209 24.6145 24.4768C27.0172 22.0394 28.5 18.6928 28.5 15C28.5 7.54423 22.4557 1.5 15 1.5C7.54425 1.5 1.5 7.54423 1.5 15C1.5 18.6872 2.97829 22.0292 5.37452 24.4656ZM14.386 29.9876C6.38619 29.6655 0 23.0788 0 15C0 6.71549 6.7155 0 15 0C23.2845 0 30 6.71549 30 15C30 23.2845 23.2845 29.9999 15 29.9999C14.9799 29.9999 14.9599 29.9999 14.9398 29.9998C14.927 29.9998 14.9142 29.9997 14.9014 29.9996C14.866 30 14.8306 30.0001 14.7952 29.9999C14.6584 29.9994 14.522 29.9953 14.386 29.9876ZM21 12C21 13.5913 20.3679 15.1174 19.2426 16.2426C18.1174 17.3678 16.5913 18 15 18C13.4087 18 11.8826 17.3678 10.7574 16.2426C9.63214 15.1174 9 13.5913 9 12C9 10.4087 9.63214 8.88257 10.7574 7.75736C11.8826 6.63214 13.4087 6 15 6C16.5913 6 18.1174 6.63214 19.2426 7.75736C20.3679 8.88257 21 10.4087 21 12Z" fill="white" fill-opacity="0.33"/>
</svg>
