<svg width="30" height="30" viewBox="0 0 30 30" fill="none" xmlns="http://www.w3.org/2000/svg">
<path fill-rule="evenodd" clip-rule="evenodd" d="M15.0335 0C11.0775 0 7.47283 1.24344 5.3403 2.25936C5.14763 2.35103 4.96809 2.44104 4.80082 2.52771C4.46977 2.69939 4.18777 2.85941 3.96357 3.00025L6.38949 6.39887L7.53151 6.8314C11.9945 8.97408 17.9796 8.97408 22.4434 6.8314L23.7396 6.19135L26.0341 3.00025C25.5588 2.70522 25.0645 2.43884 24.5541 2.20268C22.4329 1.1976 18.9149 0 15.0335 0ZM9.39079 3.84699C8.53175 3.69402 7.6833 3.4914 6.85015 3.24027C8.84781 2.39603 11.8255 1.50013 15.0326 1.50013C17.2544 1.50013 19.3554 1.93016 21.093 2.47521C19.0568 2.74773 16.884 3.21027 14.8136 3.77948C13.1847 4.22785 11.2807 4.17951 9.39079 3.84699ZM23.3683 8.06734L23.1537 8.17068C18.2432 10.5275 11.7309 10.5275 6.82037 8.17068L6.61719 8.07234C-0.758645 15.7738 -6.38992 30 15.0335 30C36.4551 30 30.6863 15.508 23.3683 8.06734ZM14.1226 15.0012C13.6581 15.0012 13.2126 15.1769 12.8841 15.4894C12.5556 15.802 12.3711 16.226 12.3711 16.6681C12.3711 17.1101 12.5556 17.5341 12.8841 17.8467C13.2126 18.1593 13.6581 18.3349 14.1226 18.3349V15.0012ZM15.8742 13.3344V12.501H14.1226V13.3344C13.1936 13.3344 12.3025 13.6857 11.6456 14.3108C10.9886 14.936 10.6195 15.7839 10.6195 16.6681C10.6195 17.5522 10.9886 18.4001 11.6456 19.0253C12.3025 19.6504 13.1936 20.0017 14.1226 20.0017V23.3353C13.7604 23.3354 13.407 23.2286 13.1112 23.0296C12.8154 22.8307 12.5917 22.5493 12.4709 22.2244C12.3936 22.0159 12.2324 21.8453 12.0228 21.7499C11.8132 21.6546 11.5724 21.6424 11.3534 21.716C11.1344 21.7896 10.955 21.943 10.8549 22.1424C10.7547 22.3418 10.7418 22.571 10.8192 22.7794C11.0608 23.4294 11.5082 23.9922 12.0998 24.3903C12.6914 24.7883 13.3981 25.0021 14.1226 25.0021V25.8355H15.8742V25.0021C16.8033 25.0021 17.6943 24.6509 18.3513 24.0257C19.0082 23.4005 19.3773 22.5526 19.3773 21.6685C19.3773 20.7843 19.0082 19.9364 18.3513 19.3113C17.6943 18.6861 16.8033 18.3349 15.8742 18.3349V15.0012C16.6361 15.0012 17.2851 15.4638 17.5268 16.1122C17.5627 16.2183 17.6205 16.3164 17.6969 16.4008C17.7734 16.4853 17.8668 16.5543 17.9717 16.6037C18.0767 16.6532 18.191 16.6821 18.3078 16.6888C18.4247 16.6955 18.5418 16.6799 18.6523 16.6427C18.7627 16.6056 18.8641 16.5478 18.9507 16.4727C19.0372 16.3976 19.107 16.3068 19.156 16.2056C19.205 16.1044 19.2321 15.9948 19.2358 15.8834C19.2396 15.7721 19.2198 15.6611 19.1777 15.5571C18.9361 14.9071 18.4887 14.3443 17.8971 13.9463C17.3055 13.5482 16.5987 13.3345 15.8742 13.3344ZM15.8742 20.0017V23.3353C16.3387 23.3353 16.7843 23.1597 17.1127 22.8471C17.4412 22.5345 17.6258 22.1105 17.6258 21.6685C17.6258 21.2264 17.4412 20.8024 17.1127 20.4899C16.7843 20.1773 16.3387 20.0017 15.8742 20.0017Z" fill="white"/>
</svg>
