<svg width="35" height="30" viewBox="0 0 35 30" fill="none" xmlns="http://www.w3.org/2000/svg">
<path d="M25.6667 8.45455V7.5C25.6667 3.22159 20.1542 0 12.8333 0C5.5125 0 0 3.22159 0 7.5V14.3182C0 17.8807 3.82083 20.7102 9.33333 21.5625V22.5C9.33333 26.7784 14.8458 30 22.1667 30C29.4875 30 35 26.7784 35 22.5V15.6818C35 12.1534 31.2958 9.32386 25.6667 8.45455ZM9.33333 18.7841V14.7443C10.494 14.9187 11.6631 15.0041 12.8333 15C14.0035 15.0041 15.1727 14.9187 16.3333 14.7443V18.7841C15.1755 18.995 14.0051 19.0976 12.8333 19.0909C11.6615 19.0976 10.4912 18.995 9.33333 18.7841ZM23.3333 11.9148V14.3182C23.3333 15.75 21.525 17.2841 18.6667 18.2216V14.233C20.5479 13.7045 22.1375 12.9034 23.3333 11.9148ZM2.33333 14.3182V11.9148C3.52917 12.9034 5.11875 13.7045 7 14.233V18.2216C4.14167 17.2841 2.33333 15.75 2.33333 14.3182ZM11.6667 22.5V21.7841L12.8333 21.8182C13.4069 21.8182 13.9611 21.8011 14.4958 21.767C15.0792 22.0057 15.6917 22.2102 16.3333 22.3977V26.4034C13.475 25.4659 11.6667 23.9318 11.6667 22.5ZM18.6667 26.9659V22.9091C19.8272 23.087 20.9962 23.1781 22.1667 23.1818C23.3369 23.1859 24.506 23.1005 25.6667 22.9261V26.9659C23.3465 27.375 20.9869 27.375 18.6667 26.9659ZM28 26.4034V22.4148C29.8812 21.8864 31.4708 21.0852 32.6667 20.0966V22.5C32.6667 23.9318 30.8583 25.4659 28 26.4034Z" fill="white"/>
</svg>
